<?xml version="1.0" ?><svg xmlns="http://www.w3.org/2000/svg" width="163.55016mm" height="90.89917mm" viewBox="0 0 163.55016 90.89917">
    <path d="m 75.1298,107.4234 c -4.4791,-0.1198 -18.0184,3.9942 -18.0474,5.5062 0,0.2113 0.5319,1.1664 1.1926,2.1223 0.6607,0.9558 1.4011,1.7542 1.6449,1.7746 0.2438,0.02 1.1552,-0.1839 3.2561,-1.0485 2.1006,-0.8642 6.128,-1.8681 8.9483,-2.2314 l 4.4866,-0.5685 0.052,-2.7559 c 0.046,-2.3905 -0.1561,-2.7617 -1.5322,-2.7988 h -6e-4 z m 5.7661,0.1701 -0.154,12.6736 c 0.034,8.5237 0.081,20.0172 0.054,26.2082 -0.02,3.5652 3.4622,-4.6704 5.7335,-9.6909 3.255,-7.195 7.1224,-14.4537 10.697,-22.0027 0.9654,-1.4424 1.6559,-2.7247 1.5342,-2.8484 -0.7532,-0.7644 -8.6241,-2.9976 -12.5454,-3.5673 z m 21.933,6.6306 v 5e-4 c -0.2027,-0.02 -0.3526,-10e-5 -0.433,0.09 -0.3177,0.324 -2.0198,3.2146 -3.7827,6.4229 -2.3271,4.2344 -7.186,13.3764 -13.3703,24.2538 -1.4616,2.5682 -2.8657,4.0384 0.9824,1.3131 1.359,-0.8784 3.1364,-2.0397 5.0612,-3.2675 4.3131,-2.7507 10.7054,-7.8824 15.7344,-10.9751 5.0289,-3.0928 9.1507,-5.8634 9.1581,-6.1562 0.023,-0.8754 -7.6953,-8.4792 -10.5528,-10.3978 -1.1064,-0.7428 -2.1895,-1.2267 -2.7973,-1.2836 z m -49.0182,0.6743 c -0.9856,0 -3.5591,2.5014 -5.8079,4.7073 -2.644,2.4018 -5.6903,5.4542 -6.5086,6.5427 -0.7851,0.8966 -1.4913,2.2825 -1.9276,3.0903 l 1.8743,1.0779 c 2.0755,1.1938 3.0254,1.8195 3.4494,0.724 0.3548,-0.5071 2.77,-3.8722 5.5857,-6.4616 l 5.9651,-5.1279 -1.232,-2.8019 c -0.7146,-0.8737 -0.8071,-1.7452 -1.3984,-1.7508 z m 95.5358,3.5115 c -2.0632,0.039 -4.0646,0.6034 -5.6612,1.8582 -2.988,2.3486 -4.1621,6.8047 -2.7367,9.3411 1.1757,2.0924 2.3216,1.6116 3.5155,-1.4764 1.3468,-3.4832 3.0494,-4.9732 5.5046,-4.8132 5.0067,0.3242 8.0031,6.3087 6.0663,12.1161 -0.4735,1.4199 -4.0909,7.2729 -8.0393,13.0064 -11.0771,16.0855 -11.7077,17.5868 -8.3747,19.9451 v -5e-4 c 2.1084,1.4922 2.939,1.1182 9.8268,0.9523 3.7816,-0.091 6.3882,-0.2444 7.8439,-0.3214 2.5886,-0.1865 7.5667,-1.7708 3.8494,-5.0937 -1.3986,-1.25 -2.1165,-1.5061 -5.4369,-1.3322 -2.1316,0.1119 -4.0848,0.193 -6.3127,0.172 -2.9513,-0.018 -2.9848,-0.2722 -0.6662,-3.2597 3.5366,-4.5559 10.6905,-16.0381 12.3145,-19.4179 3.0363,-6.3184 2.0088,-14.0259 -2.4592,-18.2723 -2.1863,-2.0778 -5.7954,-3.4694 -9.2341,-3.4039 z m 31.5293,0.01 c -2.5954,-0.1073 -5.0469,0.594 -6.751,2.172 -5.0576,4.6841 -7.3366,16.3241 -5.6601,30.9046 0.5369,4.6713 1.0549,12.6295 7.6492,17.0718 5.042,3.3969 11.4172,1.7475 14.8042,-4.2096 2.8263,-4.9711 4.1643,-10.1201 4.7238,-18.1839 0.8168,-11.7612 -1.0497,-18.9651 -5.3253,-23.4745 -2.5292,-2.6673 -6.1038,-4.1423 -9.4408,-4.2804 z m -0.231,5.6302 c 1.3477,-0.081 2.7843,0.3786 4.2174,1.4108 3.0739,2.2139 4.043,5.4325 4.3444,14.4239 0.3678,10.9778 -1.364,19.0228 -5.0199,23.3148 -0.7264,0.8532 -2.0046,1.5508 -2.8401,1.5508 -2.1814,0 -4.6154,-2.6161 -5.7723,-6.2053 -2.2188,-6.8832 -2.5262,-25.1506 -0.5002,-29.7279 1.3252,-2.9938 3.3246,-4.6318 5.5707,-4.7671 z m -61.5859,5.9485 -5.5154,3.1052 c -3.0333,1.7081 -8.6272,5.6476 -12.8369,8.1127 -5.2867,3.0956 -10.19,5.7515 -15.5262,8.5194 -0.6854,0.3557 -0.206,0.608 1.5689,0.5147 14.7351,-0.7753 24.3516,-0.9152 37.9408,-0.9163 1.7212,-2e-4 1.6705,0.466 1.2728,-2.5145 -0.4817,-3.6102 -3.8132,-12.511 -5.6312,-15.0456 z m -80.8648,3.3253 c -0.7609,-0.064 -1.1387,0.5616 -2.1099,2.4598 -0.7656,1.4959 -2.2277,5.9532 -3.1446,10.0248 -0.4418,1.9623 -0.6047,3.7109 -0.6588,5.15 -0.037,0.9688 0.5572,1.2522 2.7486,1.326 2.6796,0.09 2.7187,-0.3263 3.1601,-2.853 0.2528,-1.4464 1.2118,-5.5138 2.0386,-8.5426 1.4332,-5.2508 2.1485,-5.9264 0.7643,-6.504 -0.9152,-0.3819 -1.341,-0.6839 -2.4453,-0.9927 -0.128,-0.036 -0.2442,-0.06 -0.353,-0.068 z m 63.1326,19.5756 c -6.6457,0.02 -12.5281,0.1276 -14.4338,0.3323 -2.861,0.3077 -2.5407,0.7077 0.6517,2.1363 3.5065,1.569 15.6268,8.2058 26.465,14.1107 3.0635,1.669 6.0478,2.9979 6.6312,2.9544 2.0881,-0.1559 6.9722,-17.1623 5.412,-18.8438 -0.452,-0.4874 -13.6499,-0.7182 -24.7261,-0.6899 z m -68.1566,3.6241 v 0 c -0.1818,3e-4 -0.3641,0.02 -0.5648,0.046 -0.9842,0.1639 2.0792,10.8358 3.9553,14.4978 1.2302,2.4016 2.4525,4.5453 2.7022,4.5537 0.2498,0 1.2284,-0.6801 2.4799,-1.4009 0.9625,-0.5547 1.4698,-0.8609 2.1952,-1.2955 l -2.2603,-4.9258 c -0.9302,-2.2254 -2.4222,-6.0155 -2.8453,-8.5515 l -0.4413,-2.8799 -3.0753,0.046 c -1.055,0.02 -1.6002,-0.091 -2.1456,-0.091 z m 81.0643,17.5245 c -1.1961,1.9115 -2.5073,3.5835 -3.8757,4.8085 -2.4925,2.231 -5.6582,4.782 -8.6527,7.0373 0.8118,1.3676 1.4587,2.4941 1.6474,2.9341 0.4643,1.0825 1.0968,1.9763 1.4041,1.9865 1.0266,0.034 11.9462,-10.2734 13.0948,-12.4122 l 1.1333,-2.1104 z m -67.7617,2.7703 -2.1167,1.4165 c -1.6299,1.0902 -1.9632,1.4321 -1.4852,2.3616 1.2388,2.4095 6.0843,6.6827 10.017,9.4656 2.8903,2.04553 3.3151,1.27383 4.9806,-1.6123 1.1557,-2.0031 0.3702,-2.5475 -2.5963,-4.406 -1.7112,-1.0723 -4.9416,-3.8594 -7.0378,-5.6652 z m 122.6715,0.9964 c -0.4229,-0.018 -0.8574,0.1169 -1.205,0.4527 -0.4277,0.4132 -0.5958,1.2723 -0.3737,1.9089 0.5132,1.4713 2.7865,1.0791 3.1559,-0.5442 0.228,-1.0017 -0.6468,-1.7785 -1.5772,-1.8174 z m -17.8919,2.6014 c -0.8263,0 -1.6382,0.2354 -2.2515,0.7586 -0.7222,0.6167 -1.8514,1.1647 -2.2541,-0.1597 -0.2349,-0.7726 -1.4712,-0.5648 -1.7565,-0.2894 -0.6071,0.5859 -0.9624,14.29203 -0.4212,16.20783 0.2388,0.8457 0.9066,1.2281 1.9022,1.0862 1.447,-0.2053 1.5459,-0.5858 1.7513,-6.7406 0.1856,-5.56943 0.3859,-6.52323 1.3695,-6.52323 1.2579,0 1.9127,3.0845 1.7466,8.22853 -0.1239,3.8394 0.3896,5.1707 1.9937,5.1707 2.1522,0 3.0847,-2.589 2.8272,-7.84913 -0.2131,-4.3553 -0.1066,-4.8177 1.202,-5.2286 3.3764,-0.8851 1.9726,3.7435 2.4298,5.96243 0.3153,6.1761 1.1712,7.9441 3.2226,6.6554 0.9932,-0.6236 1.2251,-1.6093 1.1611,-4.9201 -0.1099,-5.63643 -0.9382,-8.95143 -2.6313,-10.53373 -1.3774,-1.2872 -3.2178,-2.0587 -5.1108,-0.385 -1.0521,0.9295 -0.873,1.584 -1.7813,0.1395 -0.6048,-0.9613 -2.0221,-1.5864 -3.3993,-1.5797 z m 28.9357,0.7172 c -1.0695,-0.015 -2.1611,0.2492 -2.99,0.8403 -0.7556,0.5387 -0.9703,0.6059 -1.3322,0.2181 -0.3723,-0.3991 -1.4987,-0.1412 -1.6666,0.6082 -0.2249,0.9955 -0.063,3.815 -0.1782,7.1107 -0.1851,5.30323 -0.01,7.50853 0.6118,7.72823 2.7097,0.9569 3.5541,-1.0939 2.9151,-7.08023 -0.5041,-4.7253 -0.1067,-5.7086 1.1327,-5.7686 1.5043,-0.073 2.5681,0.045 2.9885,8.25323 0.1343,2.6252 1.3365,4.6274 3.0701,4.3 2.8798,-0.5439 2.0751,-11.01393 -1.1436,-14.87973 -0.6937,-0.8329 -2.0313,-1.3114 -3.4065,-1.3302 z m -11.2262,2.9166 c -1.3754,0 -1.6023,1.1494 -1.4965,7.58153 0.083,5.0938 0.2582,5.8182 1.4061,5.8182 1.4819,0 2.9822,-0.4019 2.9192,-4.2529 -0.1325,-8.27923 -1.8751,-9.14683 -2.8288,-9.14683 z m -70.5078,3.8716 c -1.0227,0.6303 -1.9994,1.1608 -2.8618,1.4795 -3.0624,1.1318 -10.5533,2.26703 -14.6426,2.32033 0.2409,5.3095 0.5163,6.5668 1.3834,6.596 3.7682,0.126 18.6748,-4.4066 18.7012,-5.7821 0,-0.196 -1.0803,-2.09343 -2.5802,-4.61373 z m -35.3792,0.816 c -0.5392,0 -0.6489,0.064 -1.5193,1.4929 -1.1644,1.91183 -1.7523,3.04613 -1.0749,3.69963 0.8365,0.8065 3.1126,1.293 8.3752,2.6169 2.4667,0.6203 5.3074,1.0915 6.3955,1.1591 1.8931,0.1178 1.8739,-0.4698 1.8515,-3.2851 l -0.022,-2.712 -3.2758,-0.81703 c -3.3333,-0.6044 -7.1364,-1.9282 -10.73,-2.1544 z" transform="translate(-32.279197,-107.42084)"/>
</svg>